<?xml version="1.0" encoding="UTF-8"?>
<svg id="Ebene_1" data-name="Ebene 1" xmlns="http://www.w3.org/2000/svg" viewBox="0 0 1000 1000">
  <defs>
    <style>
      .cls-1 {
        stroke-width: 12px;
      }

      .cls-1, .cls-2 {
        fill: #f5f0eb;
        stroke: #f5f0eb;
        stroke-miterlimit: 10;
      }

      .cls-2 {
        stroke-width: 6px;
      }
    </style>
  </defs>
  <path class="cls-1" d="M485.72,535.88V239.03c0-7.88,6.39-14.28,14.28-14.28h0c7.88,0,14.28,6.39,14.28,14.28v296.85c0,7.88-6.39,14.28-14.28,14.28h0c-7.88,0-14.28-6.39-14.28-14.28Z"/>
  <path class="cls-1" d="M727.89,557.03c-29.61,0-55.04-6.37-76.27-19.11-21.24-12.74-37.54-29.86-48.91-51.38-11.37-21.51-17.05-45.4-17.05-71.65v-175.86c0-7.88,6.39-14.28,14.28-14.28h0c7.88,0,14.28,6.39,14.28,14.28v175.86c0,21.28,4.4,40.78,13.22,58.49,8.81,17.71,21.68,31.89,38.6,42.52,16.92,10.64,37.54,15.96,61.86,15.96s45.69-5.36,62.52-16.08c16.83-10.72,29.57-24.97,38.2-42.76,8.63-17.78,12.95-37.17,12.95-58.14v-175.86c0-7.88,6.39-14.28,14.28-14.28h0c7.88,0,14.28,6.39,14.28,14.28v175.86c0,19.73-3.26,38.18-9.78,55.34-6.52,17.17-15.91,32.27-28.15,45.32-12.26,13.05-27.14,23.22-44.68,30.52-17.54,7.3-37.41,10.95-59.61,10.95Z"/>
  <path class="cls-2" d="M315.68,806.4c-15.64,0-29.89-4.02-42.75-12.07-12.86-8.04-23.12-18.84-30.77-32.38-7.65-13.54-11.47-28.53-11.47-44.96,0-12.46,2.21-24.11,6.63-34.93,4.42-10.82,10.51-20.34,18.27-28.56,7.76-8.21,16.8-14.65,27.11-19.29,10.31-4.65,21.3-6.97,32.98-6.97,12.35,0,23.77,2.41,34.25,7.22,10.48,4.82,19.52,11.59,27.11,20.31,7.59,8.73,13.43,19.01,17.51,30.85,3.66,10.62,5.54,22.13,5.64,34.52.02,2.38-1.91,4.32-4.28,4.32h-141.14c-2.61,0-4.65,2.33-4.23,4.91,1.64,10.17,5.08,19.38,10.32,27.64,6.06,9.58,13.85,17.11,23.37,22.61,9.52,5.5,20,8.3,31.45,8.41,12.58,0,23.91-3.31,34-9.94,9.28-6.1,16.89-14.29,22.81-24.57.93-1.61,2.82-2.41,4.63-1.99l10.15,2.33c2.71.62,4.15,3.64,2.86,6.1-6.73,12.87-16.19,23.56-28.39,32.08-13.71,9.58-29.07,14.36-46.07,14.36ZM254.23,708.83h122.72c2.55,0,4.57-2.22,4.25-4.74-1.22-9.85-4.45-19.01-9.68-27.47-6.06-9.8-13.97-17.65-23.71-23.54-9.75-5.89-20.46-8.84-32.13-8.84s-22.33,2.89-31.96,8.67c-9.63,5.78-17.48,13.57-23.54,23.37-5.22,8.45-8.62,17.67-10.18,27.67-.4,2.57,1.63,4.88,4.24,4.88Z"/>
  <path class="cls-2" d="M462.26,797.69v-161.41c0-2.37,1.92-4.29,4.29-4.29h9.78c2.37,0,4.29,1.92,4.29,4.29v9.29c0,3.87,4.75,5.82,7.4,3,4.83-5.12,10.46-9.46,16.91-13.01,10.09-5.55,21.08-8.33,32.98-8.33,4.83,0,10.24-.22,13.96,2.53,2.21,1.63,3.26,2.58,3.26,5.84,0,2.71-4.24,8.85-4.24,8.85-.81,1.9-2.86,2.94-4.88,2.5-3.68-.79-7.29-1.19-10.83-1.19-9.97,0-19.1,2.44-27.37,7.31-8.27,4.87-14.88,11.45-19.8,19.72-4.93,8.27-7.39,17.45-7.39,27.54v97.37c0,2.37-1.92,4.29-4.29,4.29h-9.78c-2.37,0-4.29-1.92-4.29-4.29Z"/>
  <path class="cls-2" d="M755.2,631.99h9.92c2.31,0,4.19,1.87,4.19,4.19v161.62c0,2.31-1.87,4.19-4.19,4.19h-10.05c-2.29,0-4.15-1.84-4.19-4.13l-.24-16.07c-.06-4.08-5.23-5.71-7.68-2.45-4.78,6.33-10.54,11.76-17.26,16.27-10.71,7.2-23.54,10.79-38.5,10.79-12.35,0-23.94-2.35-34.76-7.05-10.82-4.7-20.37-11.16-28.64-19.38-8.27-8.22-14.73-17.73-19.38-28.56-4.65-10.82-6.97-22.47-6.97-34.93s2.3-23.91,6.89-34.68c4.59-10.77,10.96-20.26,19.12-28.47,8.16-8.21,17.62-14.62,28.39-19.21,10.77-4.59,22.27-6.88,34.51-6.88,15.07,0,28.13,3.65,39.18,10.96,7.08,4.68,13.17,10.29,18.27,16.81,2.45,3.13,7.5,1.28,7.44-2.7l-.23-16.07c-.03-2.34,1.85-4.25,4.19-4.25ZM687.04,788.38c13.03,0,24.22-3.2,33.57-9.6,9.35-6.4,16.52-15.04,21.5-25.92,4.99-10.88,7.48-22.83,7.48-35.87s-2.52-25.47-7.56-36.29c-5.04-10.82-12.24-19.44-21.59-25.84-9.35-6.4-20.48-9.6-33.4-9.6s-25.07,3.23-35.78,9.69c-10.71,6.46-19.24,15.13-25.58,26.01-6.35,10.88-9.52,22.89-9.52,36.04s3.26,25.44,9.77,36.21c6.51,10.77,15.15,19.32,25.92,25.67,10.77,6.35,22.49,9.52,35.19,9.52Z"/>
  <path class="cls-1" d="M272.11,224.76c29.61,0,55.04,6.3,76.27,18.91,21.24,12.6,37.54,29.55,48.91,50.85,11.37,21.29,17.05,44.93,17.05,70.91v173.9c0,7.88-6.39,14.28-14.28,14.28h0c-7.88,0-14.28-6.39-14.28-14.28v-173.9c0-21.06-4.4-40.35-13.22-57.88-8.81-17.53-21.68-31.56-38.6-42.09-16.92-10.53-37.54-15.8-61.86-15.8-24.85,0-45.69,5.3-62.52,15.91-16.83,10.61-29.57,24.71-38.2,42.32-8.63,17.6-12.95,36.78-12.95,57.53v173.9c0,7.88-6.39,14.28-14.28,14.28h0c-7.88,0-14.28-6.39-14.28-14.28v-173.9c0-19.52,3.26-37.78,9.78-54.77,6.52-16.99,15.91-31.94,28.15-44.85,12.26-12.91,27.14-22.98,44.68-30.21,17.54-7.22,37.41-10.84,59.61-10.84Z"/>
</svg>